# xmcd CD database file
#
# Track frame offsets:
#	150
#	28138
#	49966
#	61911
#	86695
#	104290
#	126949
#	142746
#
# Disc length: 2274 seconds
#
# Revision: 0
# Processed by: cddbd v1.5.2PL0 Copyright (c) Steve Scherf et al.
# Submitted via: CDex 1.51
#
DISCID=6a08e008
DTITLE=Mickie D´s Unicorn - Mickie D´s Unicorn  (LP-Kopie-IC58064)
DYEAR=1979
DGENRE=New Age
TTITLE0=01 In Times Of The Unicorn
TTITLE1=02 The Witch
TTITLE2=03 Sundayborn Child
TTITLE3=04 The Searcher
TTITLE4=05 Little Red Riding Hood
TTITLE5=06 Black Riders
TTITLE6=07 West Of The Moon
TTITLE7=08 A: Elbereth
EXTD=YEAR: 1979
EXTT0=
EXTT1=
EXTT2=
EXTT3=
EXTT4=
EXTT5=
EXTT6=
EXTT7=
PLAYORDER=
